<svg xmlns="http://www.w3.org/2000/svg" viewBox="0 0 900 300" width="900" height="300" role="img" aria-labelledby="t">
<title id="t">Thank you for 3,000 downloads</title>
<defs>
  <linearGradient id="bg" x1="0" y1="0" x2="0" y2="1">
    <stop offset="0" stop-color="#14264a"/>
    <stop offset="1" stop-color="#0a1226"/>
  </linearGradient>
  <linearGradient id="gold" x1="0" y1="0" x2="0" y2="1">
    <stop offset="0" stop-color="#fff2b8"/>
    <stop offset=".55" stop-color="#ffd166"/>
    <stop offset="1" stop-color="#f29e1d"/>
  </linearGradient>
  <clipPath id="card"><rect width="900" height="300" rx="18"/></clipPath>
</defs>
<style>
  .fall { transform-box: fill-box; transform-origin: center; animation: fall linear infinite; }
  @keyframes fall {
    from { transform: translateY(0) rotate(0deg); }
    to   { transform: translateY(340px) rotate(540deg); }
  }
  .twinkle { transform-box: fill-box; transform-origin: center; animation: twinkle 2.6s ease-in-out infinite; }
  @keyframes twinkle {
    0%, 100% { transform: scale(.45); opacity: .35; }
    50%      { transform: scale(1.15); opacity: 1; }
  }
  .bubble { animation: bubble 2.2s ease-in infinite; }
  @keyframes bubble {
    0%   { transform: translateY(0); opacity: 0; }
    20%  { opacity: .9; }
    100% { transform: translateY(-24px); opacity: 0; }
  }
  .clink { transform-box: fill-box; transform-origin: center; animation: clink 1.6s ease-in-out infinite; }
  @keyframes clink {
    0%, 55%, 100% { transform: translate(0, -104px) scale(.2); opacity: 0; }
    70%           { transform: translate(0, -104px) scale(1.2); opacity: 1; }
    85%           { transform: translate(0, -104px) scale(.6); opacity: .5; }
  }
  .plane { animation-duration: 4.2s; animation-timing-function: linear; animation-iteration-count: infinite; }
  .lead { animation-name: flyLead; animation-delay: -0.55s; }
  .chase { animation-name: flyChase; }
  .guns { animation: fire .3s steps(1) infinite; }
  @keyframes fire { 0% { opacity: 1; } 50% { opacity: 0; } }
  @keyframes flyLead {
    0.0% { transform: translate(-80px, 40.0px) rotate(29.9deg) scale(.85); }
    2.5% { transform: translate(-49px, 45.0px) rotate(27.7deg) scale(.85); }
    5.0% { transform: translate(-18px, 49.2px) rotate(21.3deg) scale(.85); }
    7.5% { transform: translate(13px, 52.0px) rotate(11.5deg) scale(.85); }
    10.0% { transform: translate(44px, 53.0px) rotate(0.0deg) scale(.85); }
    12.5% { transform: translate(75px, 52.0px) rotate(-11.5deg) scale(.85); }
    15.0% { transform: translate(106px, 49.2px) rotate(-21.3deg) scale(.85); }
    17.5% { transform: translate(137px, 45.0px) rotate(-27.7deg) scale(.85); }
    20.0% { transform: translate(168px, 40.0px) rotate(-29.9deg) scale(.85); }
    22.5% { transform: translate(199px, 35.0px) rotate(-27.7deg) scale(.85); }
    25.0% { transform: translate(230px, 30.8px) rotate(-21.3deg) scale(.85); }
    27.5% { transform: translate(261px, 28.0px) rotate(-11.5deg) scale(.85); }
    30.0% { transform: translate(292px, 27.0px) rotate(-0.0deg) scale(.85); }
    32.5% { transform: translate(323px, 28.0px) rotate(11.5deg) scale(.85); }
    35.0% { transform: translate(354px, 30.8px) rotate(21.3deg) scale(.85); }
    37.5% { transform: translate(385px, 35.0px) rotate(27.7deg) scale(.85); }
    40.0% { transform: translate(416px, 40.0px) rotate(29.9deg) scale(.85); }
    42.5% { transform: translate(447px, 45.0px) rotate(27.7deg) scale(.85); }
    45.0% { transform: translate(478px, 49.2px) rotate(21.3deg) scale(.85); }
    47.5% { transform: translate(509px, 52.0px) rotate(11.5deg) scale(.85); }
    50.0% { transform: translate(540px, 53.0px) rotate(0.0deg) scale(.85); }
    52.5% { transform: translate(571px, 52.0px) rotate(-11.5deg) scale(.85); }
    55.0% { transform: translate(602px, 49.2px) rotate(-21.3deg) scale(.85); }
    57.5% { transform: translate(633px, 45.0px) rotate(-27.7deg) scale(.85); }
    60.0% { transform: translate(664px, 40.0px) rotate(-29.9deg) scale(.85); }
    62.5% { transform: translate(695px, 35.0px) rotate(-27.7deg) scale(.85); }
    65.0% { transform: translate(726px, 30.8px) rotate(-21.3deg) scale(.85); }
    67.5% { transform: translate(757px, 28.0px) rotate(-11.5deg) scale(.85); }
    70.0% { transform: translate(788px, 27.0px) rotate(-0.0deg) scale(.85); }
    72.5% { transform: translate(819px, 28.0px) rotate(11.5deg) scale(.85); }
    75.0% { transform: translate(850px, 30.8px) rotate(21.3deg) scale(.85); }
    77.5% { transform: translate(881px, 35.0px) rotate(27.7deg) scale(.85); }
    80.0% { transform: translate(912px, 40.0px) rotate(29.9deg) scale(.85); }
    82.5% { transform: translate(943px, 45.0px) rotate(27.7deg) scale(.85); }
    85.0% { transform: translate(974px, 49.2px) rotate(21.3deg) scale(.85); }
    87.5% { transform: translate(1005px, 52.0px) rotate(11.5deg) scale(.85); }
    90.0% { transform: translate(1036px, 53.0px) rotate(0.0deg) scale(.85); }
    92.5% { transform: translate(1067px, 52.0px) rotate(-11.5deg) scale(.85); }
    95.0% { transform: translate(1098px, 49.2px) rotate(-21.3deg) scale(.85); }
    97.5% { transform: translate(1129px, 45.0px) rotate(-27.7deg) scale(.85); }
    100.0% { transform: translate(1160px, 40.0px) rotate(-29.9deg) scale(.85); }
  }
  @keyframes flyChase {
    0.0% { transform: translate(-80px, 28.3px) rotate(21.6deg) scale(.85); }
    2.5% { transform: translate(-49px, 32.7px) rotate(30.2deg) scale(.85); }
    5.0% { transform: translate(-18px, 38.3px) rotate(34.2deg) scale(.85); }
    7.5% { transform: translate(13px, 44.1px) rotate(33.1deg) scale(.85); }
    10.0% { transform: translate(44px, 49.3px) rotate(27.1deg) scale(.85); }
    12.5% { transform: translate(75px, 53.1px) rotate(16.9deg) scale(.85); }
    15.0% { transform: translate(106px, 54.9px) rotate(4.0deg) scale(.85); }
    17.5% { transform: translate(137px, 54.4px) rotate(-9.6deg) scale(.85); }
    20.0% { transform: translate(168px, 51.7px) rotate(-21.6deg) scale(.85); }
    22.5% { transform: translate(199px, 47.3px) rotate(-30.2deg) scale(.85); }
    25.0% { transform: translate(230px, 41.7px) rotate(-34.2deg) scale(.85); }
    27.5% { transform: translate(261px, 35.9px) rotate(-33.1deg) scale(.85); }
    30.0% { transform: translate(292px, 30.7px) rotate(-27.1deg) scale(.85); }
    32.5% { transform: translate(323px, 26.9px) rotate(-16.9deg) scale(.85); }
    35.0% { transform: translate(354px, 25.1px) rotate(-4.0deg) scale(.85); }
    37.5% { transform: translate(385px, 25.6px) rotate(9.6deg) scale(.85); }
    40.0% { transform: translate(416px, 28.3px) rotate(21.6deg) scale(.85); }
    42.5% { transform: translate(447px, 32.7px) rotate(30.2deg) scale(.85); }
    45.0% { transform: translate(478px, 38.3px) rotate(34.2deg) scale(.85); }
    47.5% { transform: translate(509px, 44.1px) rotate(33.1deg) scale(.85); }
    50.0% { transform: translate(540px, 49.3px) rotate(27.1deg) scale(.85); }
    52.5% { transform: translate(571px, 53.1px) rotate(16.9deg) scale(.85); }
    55.0% { transform: translate(602px, 54.9px) rotate(4.0deg) scale(.85); }
    57.5% { transform: translate(633px, 54.4px) rotate(-9.6deg) scale(.85); }
    60.0% { transform: translate(664px, 51.7px) rotate(-21.6deg) scale(.85); }
    62.5% { transform: translate(695px, 47.3px) rotate(-30.2deg) scale(.85); }
    65.0% { transform: translate(726px, 41.7px) rotate(-34.2deg) scale(.85); }
    67.5% { transform: translate(757px, 35.9px) rotate(-33.1deg) scale(.85); }
    70.0% { transform: translate(788px, 30.7px) rotate(-27.1deg) scale(.85); }
    72.5% { transform: translate(819px, 26.9px) rotate(-16.9deg) scale(.85); }
    75.0% { transform: translate(850px, 25.1px) rotate(-4.0deg) scale(.85); }
    77.5% { transform: translate(881px, 25.6px) rotate(9.6deg) scale(.85); }
    80.0% { transform: translate(912px, 28.3px) rotate(21.6deg) scale(.85); }
    82.5% { transform: translate(943px, 32.7px) rotate(30.2deg) scale(.85); }
    85.0% { transform: translate(974px, 38.3px) rotate(34.2deg) scale(.85); }
    87.5% { transform: translate(1005px, 44.1px) rotate(33.1deg) scale(.85); }
    90.0% { transform: translate(1036px, 49.3px) rotate(27.1deg) scale(.85); }
    92.5% { transform: translate(1067px, 53.1px) rotate(16.9deg) scale(.85); }
    95.0% { transform: translate(1098px, 54.9px) rotate(4.0deg) scale(.85); }
    97.5% { transform: translate(1129px, 54.4px) rotate(-9.6deg) scale(.85); }
    100.0% { transform: translate(1160px, 51.7px) rotate(-21.6deg) scale(.85); }
  }
  .num { font: 800 124px 'Segoe UI', 'Helvetica Neue', Arial, sans-serif; letter-spacing: 2px; }
  .sub { font: 700 26px 'Segoe UI', 'Helvetica Neue', Arial, sans-serif; letter-spacing: 14px; }
  @media (prefers-reduced-motion: reduce) {
    .fall, .twinkle, .bubble, .clink, .plane { animation: none; }
    .lead { transform: translate(560px, 40px) scale(.85); }
    .chase { transform: translate(430px, 40px) scale(.85); }
    .guns { display: none; }
  }
</style>
<g clip-path="url(#card)">
  <rect width="900" height="300" fill="url(#bg)"/>
  <path class="twinkle" d="M250,82 Q250,95 263,95 Q250,95 250,108 Q250,95 237,95 Q250,95 250,82Z" fill="#ffe29a" style="animation-delay:0.00s"/>
<path class="twinkle" d="M655,90 Q655,105 670,105 Q655,105 655,120 Q655,105 640,105 Q655,105 655,90Z" fill="#ffe29a" style="animation-delay:-0.45s"/>
<path class="twinkle" d="M330,246 Q330,255 339,255 Q330,255 330,264 Q330,255 321,255 Q330,255 330,246Z" fill="#ffe29a" style="animation-delay:-0.90s"/>
<path class="twinkle" d="M585,252 Q585,262 595,262 Q585,262 585,272 Q585,262 575,262 Q585,262 585,252Z" fill="#ffe29a" style="animation-delay:-1.35s"/>
<path class="twinkle" d="M195,32 Q195,40 203,40 Q195,40 195,48 Q195,40 187,40 Q195,40 195,32Z" fill="#ffe29a" style="animation-delay:-1.80s"/>
<path class="twinkle" d="M715,36 Q715,45 724,45 Q715,45 715,54 Q715,45 706,45 Q715,45 715,36Z" fill="#ffe29a" style="animation-delay:-2.25s"/>
<path class="twinkle" d="M450,23 Q450,30 457,30 Q450,30 450,37 Q450,30 443,30 Q450,30 450,23Z" fill="#ffe29a" style="animation-delay:-2.70s"/>

  <rect class="fall" x="0" y="-14" width="12" height="5" rx="2.5" fill="#ff5d73" style="animation-duration:4.8s;animation-delay:-5.8s"/>
<rect class="fall" x="479" y="-14" width="8" height="8" fill="#ffd166" style="animation-duration:7.0s;animation-delay:-4.3s"/>
<rect class="fall" x="616" y="-14" width="10" height="8" fill="#06d6a0" style="animation-duration:5.0s;animation-delay:-3.0s"/>
<rect class="fall" x="637" y="-14" width="10" height="4" fill="#4cc9f0" style="animation-duration:6.7s;animation-delay:-3.7s"/>
<rect class="fall" x="830" y="-14" width="11" height="5" fill="#b388ff" style="animation-duration:6.1s;animation-delay:-7.4s"/>
<rect class="fall" x="620" y="-14" width="10" height="7" rx="3.5" fill="#ff9f1c" style="animation-duration:7.6s;animation-delay:-7.3s"/>
<rect class="fall" x="335" y="-14" width="8" height="8" fill="#ffffff" style="animation-duration:5.3s;animation-delay:-1.2s"/>
<rect class="fall" x="268" y="-14" width="9" height="5" fill="#ff5d73" style="animation-duration:7.7s;animation-delay:-4.5s"/>
<rect class="fall" x="656" y="-14" width="11" height="4" fill="#ffd166" style="animation-duration:5.1s;animation-delay:-4.5s"/>
<rect class="fall" x="458" y="-14" width="9" height="5" fill="#06d6a0" style="animation-duration:7.6s;animation-delay:-0.4s"/>
<rect class="fall" x="329" y="-14" width="8" height="7" rx="3.5" fill="#4cc9f0" style="animation-duration:7.7s;animation-delay:-4.1s"/>
<rect class="fall" x="149" y="-14" width="8" height="5" fill="#b388ff" style="animation-duration:5.5s;animation-delay:-3.4s"/>
<rect class="fall" x="299" y="-14" width="9" height="7" fill="#ff9f1c" style="animation-duration:4.9s;animation-delay:-7.3s"/>
<rect class="fall" x="412" y="-14" width="11" height="7" fill="#ffffff" style="animation-duration:6.5s;animation-delay:-4.1s"/>
<rect class="fall" x="454" y="-14" width="10" height="9" fill="#ff5d73" style="animation-duration:5.6s;animation-delay:-5.7s"/>
<rect class="fall" x="226" y="-14" width="10" height="6" rx="3" fill="#ffd166" style="animation-duration:5.3s;animation-delay:-3.1s"/>
<rect class="fall" x="715" y="-14" width="11" height="5" fill="#06d6a0" style="animation-duration:7.3s;animation-delay:-0.6s"/>
<rect class="fall" x="366" y="-14" width="7" height="4" fill="#4cc9f0" style="animation-duration:8.0s;animation-delay:-1.8s"/>
<rect class="fall" x="569" y="-14" width="7" height="6" fill="#b388ff" style="animation-duration:6.4s;animation-delay:-1.1s"/>
<rect class="fall" x="830" y="-14" width="11" height="8" fill="#ff9f1c" style="animation-duration:7.5s;animation-delay:-7.3s"/>
<rect class="fall" x="685" y="-14" width="8" height="4" rx="2" fill="#ffffff" style="animation-duration:5.0s;animation-delay:-0.6s"/>
<rect class="fall" x="1" y="-14" width="10" height="5" fill="#ff5d73" style="animation-duration:7.0s;animation-delay:-3.9s"/>
<rect class="fall" x="619" y="-14" width="7" height="8" fill="#ffd166" style="animation-duration:4.9s;animation-delay:-3.0s"/>
<rect class="fall" x="805" y="-14" width="7" height="6" fill="#06d6a0" style="animation-duration:4.0s;animation-delay:-7.3s"/>
<rect class="fall" x="573" y="-14" width="12" height="4" fill="#4cc9f0" style="animation-duration:7.6s;animation-delay:-1.5s"/>
<rect class="fall" x="872" y="-14" width="9" height="7" rx="3.5" fill="#b388ff" style="animation-duration:5.1s;animation-delay:-1.8s"/>
<rect class="fall" x="188" y="-14" width="9" height="4" fill="#ff9f1c" style="animation-duration:7.1s;animation-delay:-5.6s"/>
<rect class="fall" x="643" y="-14" width="9" height="4" fill="#ffffff" style="animation-duration:4.4s;animation-delay:-7.4s"/>
<rect class="fall" x="118" y="-14" width="10" height="8" fill="#ff5d73" style="animation-duration:4.1s;animation-delay:-7.1s"/>
<rect class="fall" x="775" y="-14" width="12" height="9" fill="#ffd166" style="animation-duration:7.1s;animation-delay:-3.4s"/>
<rect class="fall" x="223" y="-14" width="10" height="8" rx="4" fill="#06d6a0" style="animation-duration:5.6s;animation-delay:-1.9s"/>
<rect class="fall" x="364" y="-14" width="11" height="7" fill="#4cc9f0" style="animation-duration:5.4s;animation-delay:-5.0s"/>
<rect class="fall" x="661" y="-14" width="8" height="8" fill="#b388ff" style="animation-duration:5.7s;animation-delay:-1.6s"/>
<rect class="fall" x="281" y="-14" width="12" height="9" fill="#ff9f1c" style="animation-duration:6.5s;animation-delay:-7.0s"/>
<rect class="fall" x="826" y="-14" width="7" height="7" fill="#ffffff" style="animation-duration:4.5s;animation-delay:-4.0s"/>
<rect class="fall" x="502" y="-14" width="11" height="9" rx="4.5" fill="#ff5d73" style="animation-duration:5.9s;animation-delay:-1.5s"/>
<rect class="fall" x="402" y="-14" width="7" height="7" fill="#ffd166" style="animation-duration:6.1s;animation-delay:-4.5s"/>
<rect class="fall" x="456" y="-14" width="11" height="6" fill="#06d6a0" style="animation-duration:7.0s;animation-delay:-0.2s"/>
<rect class="fall" x="269" y="-14" width="9" height="5" fill="#4cc9f0" style="animation-duration:6.9s;animation-delay:-2.3s"/>
<rect class="fall" x="212" y="-14" width="10" height="6" fill="#b388ff" style="animation-duration:4.3s;animation-delay:-6.2s"/>
<rect class="fall" x="741" y="-14" width="11" height="9" rx="4.5" fill="#ff9f1c" style="animation-duration:6.7s;animation-delay:-7.7s"/>
<rect class="fall" x="23" y="-14" width="11" height="7" fill="#ffffff" style="animation-duration:6.9s;animation-delay:-7.2s"/>
<rect class="fall" x="33" y="-14" width="7" height="4" fill="#ff5d73" style="animation-duration:4.4s;animation-delay:-0.7s"/>
<rect class="fall" x="9" y="-14" width="10" height="9" fill="#ffd166" style="animation-duration:4.8s;animation-delay:-1.1s"/>
<rect class="fall" x="182" y="-14" width="10" height="5" fill="#06d6a0" style="animation-duration:5.8s;animation-delay:-8.0s"/>
<rect class="fall" x="380" y="-14" width="10" height="8" rx="4" fill="#4cc9f0" style="animation-duration:5.6s;animation-delay:-3.3s"/>

  
<g class="plane lead">
  <path d="M40,0 L22,-4.5 L-30,-4.5 L-42,0 L-30,4.5 L22,4.5Z" fill="#e8f1ff"/>
  <path d="M10,-3 L-22,-34 L-31,-34 L-14,-3Z M10,3 L-22,34 L-31,34 L-14,3Z" fill="#b9d3f5"/>
  <path d="M-28,-3 L-42,-14 L-47,-14 L-40,-3Z M-28,3 L-42,14 L-47,14 L-40,3Z" fill="#b9d3f5"/>
  <path d="M30,-1.6 L22,-3 L8,-3 L8,3 L22,3 L30,1.6Z" fill="#2b4a7a"/>
</g>
  
<g class="plane chase"><g class="guns"><rect x="50" y="-7" width="9" height="2" rx="1" fill="#ffe29a"/><rect x="50" y="5" width="9" height="2" rx="1" fill="#ffe29a"/></g>
  <path d="M40,0 L22,-4.5 L-30,-4.5 L-42,0 L-30,4.5 L22,4.5Z" fill="#e8f1ff"/>
  <path d="M10,-3 L-22,-34 L-31,-34 L-14,-3Z M10,3 L-22,34 L-31,34 L-14,3Z" fill="#b9d3f5"/>
  <path d="M-28,-3 L-42,-14 L-47,-14 L-40,-3Z M-28,3 L-42,14 L-47,14 L-40,3Z" fill="#b9d3f5"/>
  <path d="M30,-1.6 L22,-3 L8,-3 L8,3 L22,3 L30,1.6Z" fill="#2b4a7a"/>
</g>
  
<g transform="translate(115 280) scale(1 1)">
  <g transform="translate(-26 0) rotate(14 0 0)">
  <path d="M-15,-96 L15,-96 Q16,-58 4,-38 L4,-8 L18,-4 L18,2 L-18,2 L-18,-4 L-4,-8 L-4,-38 Q-16,-58 -15,-96Z" fill="#cfeaff" fill-opacity=".22" stroke="#cfeaff" stroke-width="2.5" stroke-linejoin="round"/>
  <path d="M-12.5,-72 L12.5,-72 Q13,-56 3,-40 L-3,-40 Q-13,-56 -12.5,-72Z" fill="#ffd166" fill-opacity=".85"/>
  <circle class="bubble" cx="-3" cy="-48" r="2" fill="#fff" style="animation-delay:0s"/>
  <circle class="bubble" cx="3" cy="-50" r="1.6" fill="#fff" style="animation-delay:-0.9s"/>
  <circle class="bubble" cx="0" cy="-46" r="1.8" fill="#fff" style="animation-delay:-1.7s"/></g>
  <g transform="translate(26 0) rotate(-14 0 0)">
  <path d="M-15,-96 L15,-96 Q16,-58 4,-38 L4,-8 L18,-4 L18,2 L-18,2 L-18,-4 L-4,-8 L-4,-38 Q-16,-58 -15,-96Z" fill="#cfeaff" fill-opacity=".22" stroke="#cfeaff" stroke-width="2.5" stroke-linejoin="round"/>
  <path d="M-12.5,-72 L12.5,-72 Q13,-56 3,-40 L-3,-40 Q-13,-56 -12.5,-72Z" fill="#ffd166" fill-opacity=".85"/>
  <circle class="bubble" cx="-3" cy="-48" r="2" fill="#fff" style="animation-delay:-0.6s"/>
  <circle class="bubble" cx="3" cy="-50" r="1.6" fill="#fff" style="animation-delay:-1.5s"/>
  <circle class="bubble" cx="0" cy="-46" r="1.8" fill="#fff" style="animation-delay:-2.3s"/></g>
  <g class="clink" transform="translate(0 -104)">
    <path d="M0,-12 L2.5,-2.5 L12,0 L2.5,2.5 L0,12 L-2.5,2.5 L-12,0 L-2.5,-2.5Z" fill="#fff"/>
  </g>
</g>
  
<g transform="translate(785 280) scale(-1 1)">
  <g transform="translate(-26 0) rotate(14 0 0)">
  <path d="M-15,-96 L15,-96 Q16,-58 4,-38 L4,-8 L18,-4 L18,2 L-18,2 L-18,-4 L-4,-8 L-4,-38 Q-16,-58 -15,-96Z" fill="#cfeaff" fill-opacity=".22" stroke="#cfeaff" stroke-width="2.5" stroke-linejoin="round"/>
  <path d="M-12.5,-72 L12.5,-72 Q13,-56 3,-40 L-3,-40 Q-13,-56 -12.5,-72Z" fill="#ffd166" fill-opacity=".85"/>
  <circle class="bubble" cx="-3" cy="-48" r="2" fill="#fff" style="animation-delay:0s"/>
  <circle class="bubble" cx="3" cy="-50" r="1.6" fill="#fff" style="animation-delay:-0.9s"/>
  <circle class="bubble" cx="0" cy="-46" r="1.8" fill="#fff" style="animation-delay:-1.7s"/></g>
  <g transform="translate(26 0) rotate(-14 0 0)">
  <path d="M-15,-96 L15,-96 Q16,-58 4,-38 L4,-8 L18,-4 L18,2 L-18,2 L-18,-4 L-4,-8 L-4,-38 Q-16,-58 -15,-96Z" fill="#cfeaff" fill-opacity=".22" stroke="#cfeaff" stroke-width="2.5" stroke-linejoin="round"/>
  <path d="M-12.5,-72 L12.5,-72 Q13,-56 3,-40 L-3,-40 Q-13,-56 -12.5,-72Z" fill="#ffd166" fill-opacity=".85"/>
  <circle class="bubble" cx="-3" cy="-48" r="2" fill="#fff" style="animation-delay:-0.6s"/>
  <circle class="bubble" cx="3" cy="-50" r="1.6" fill="#fff" style="animation-delay:-1.5s"/>
  <circle class="bubble" cx="0" cy="-46" r="1.8" fill="#fff" style="animation-delay:-2.3s"/></g>
  <g class="clink" transform="translate(0 -104)">
    <path d="M0,-12 L2.5,-2.5 L12,0 L2.5,2.5 L0,12 L-2.5,2.5 L-12,0 L-2.5,-2.5Z" fill="#fff"/>
  </g>
</g>
  <text class="sub" x="457" y="96" text-anchor="middle" fill="#e8f1ff">THANK YOU FOR</text>
  <text class="num" x="450" y="204" text-anchor="middle" fill="url(#gold)" stroke="#8a5a00" stroke-width="1" stroke-opacity=".5">3,000</text>
  <text class="sub" x="457" y="254" text-anchor="middle" fill="#e8f1ff">DOWNLOADS</text>
</g>
<rect x="1" y="1" width="898" height="298" rx="17" fill="none" stroke="#ffd166" stroke-opacity=".55" stroke-width="2"/>
</svg>
